<svg width="1101" height="722" viewBox="0 0 1101 722" fill="none" xmlns="http://www.w3.org/2000/svg">
<g opacity="0.3">
<path d="M222.108 2.1589H331.845V91.9267H222.108V2.1589Z" stroke="#565656" stroke-width="2" stroke-dasharray="2 5"/>
<path d="M112.372 361.23H222.108V450.998H112.372V361.23Z" stroke="#565656" stroke-width="2" stroke-dasharray="2 5"/>
<path d="M2.63556 361.23H112.372V450.998H2.63556V361.23Z" stroke="#565656" stroke-width="2" stroke-dasharray="2 5"/>
<path d="M770.791 361.23H880.527V450.998H770.791V361.23Z" stroke="#565656" stroke-width="2" stroke-dasharray="2 5"/>
<path d="M441.581 361.23H551.318V450.998H441.581V361.23Z" stroke="#565656" stroke-width="2" stroke-dasharray="2 5"/>
<path d="M112.372 181.694H222.108V271.462H112.372V181.694Z" stroke="#565656" stroke-width="2" stroke-dasharray="2 5"/>
<path d="M770.791 181.694H880.527V271.462H770.791V181.694Z" stroke="#565656" stroke-width="2" stroke-dasharray="2 5"/>
<path d="M441.581 181.694H551.318V271.462H441.581V181.694Z" stroke="#565656" stroke-width="2" stroke-dasharray="2 5"/>
<path d="M441.581 540.765H551.318V630.533H441.581V540.765Z" stroke="#565656" stroke-width="2" stroke-dasharray="2 5"/>
<path d="M112.372 91.9267H222.108V181.694H112.372V91.9267Z" stroke="#565656" stroke-width="2" stroke-dasharray="2 5"/>
<path d="M2.63556 1.25216H112.372V91.0199H2.63556V1.25216Z" stroke="#565656" stroke-width="2" stroke-dasharray="2 5"/>
<path d="M770.791 91.9267H880.527V181.694H770.791V91.9267Z" stroke="#565656" stroke-width="2" stroke-dasharray="2 5"/>
<path d="M112.372 450.998H222.108V540.765H112.372V450.998Z" stroke="#565656" stroke-width="2" stroke-dasharray="2 5"/>
<path d="M770.791 450.998H880.527V540.765H770.791V450.998Z" stroke="#565656" stroke-width="2" stroke-dasharray="2 5"/>
<path d="M441.581 91.9267H551.318V181.694H441.581V91.9267Z" stroke="#565656" stroke-width="2" stroke-dasharray="2 5"/>
<path d="M441.581 450.998H551.318V540.765H441.581V450.998Z" stroke="#565656" stroke-width="2" stroke-dasharray="2 5"/>
<path d="M770.791 271.462H880.527V361.23H770.791V271.462Z" stroke="#565656" stroke-width="2" stroke-dasharray="2 5"/>
<path d="M1.5271 630.533H111.264V720.301H1.5271V630.533Z" stroke="#565656" stroke-width="2" stroke-dasharray="2 5"/>
<path d="M441.581 271.462H551.318V361.23H441.581V271.462Z" stroke="#565656" stroke-width="2" stroke-dasharray="2 5"/>
<path d="M221 630.533H330.736V720.301H221V630.533Z" stroke="#565656" stroke-width="2" stroke-dasharray="2 5"/>
<path d="M222.108 361.23H331.845V450.998H222.108V361.23Z" stroke="#565656" stroke-width="2" stroke-dasharray="2 5"/>
<path d="M880.527 361.23H990.264V450.998H880.527V361.23Z" stroke="#565656" stroke-width="2" stroke-dasharray="2 5"/>
<path d="M551.318 2.1589H661.054V91.9267H551.318V2.1589Z" stroke="#565656" stroke-width="2" stroke-dasharray="2 5"/>
<path d="M551.318 361.23H661.054V450.998H551.318V361.23Z" stroke="#565656" stroke-width="2" stroke-dasharray="2 5"/>
<path d="M222.108 181.694H331.845V271.462H222.108V181.694Z" stroke="#565656" stroke-width="2" stroke-dasharray="2 5"/>
<path d="M880.527 181.694H990.264V271.462H880.527V181.694Z" stroke="#565656" stroke-width="2" stroke-dasharray="2 5"/>
<path d="M551.318 181.694H661.054V271.462H551.318V181.694Z" stroke="#565656" stroke-width="2" stroke-dasharray="2 5"/>
<path d="M551.318 540.765H661.054V630.533H551.318V540.765Z" stroke="#565656" stroke-width="2" stroke-dasharray="2 5"/>
<path d="M222.108 91.9267H331.845V181.694H222.108V91.9267Z" stroke="#565656" stroke-width="2" stroke-dasharray="2 5"/>
<path d="M222.108 450.998H331.845V540.765H222.108V450.998Z" stroke="#565656" stroke-width="2" stroke-dasharray="2 5"/>
<path d="M880.527 450.998H990.264V540.765H880.527V450.998Z" stroke="#565656" stroke-width="2" stroke-dasharray="2 5"/>
<path d="M551.318 91.9267H661.054V181.694H551.318V91.9267Z" stroke="#565656" stroke-width="2" stroke-dasharray="2 5"/>
<path d="M551.318 450.998H661.054V540.765H551.318V450.998Z" stroke="#565656" stroke-width="2" stroke-dasharray="2 5"/>
<path d="M222.108 271.462H331.845V361.23H222.108V271.462Z" stroke="#565656" stroke-width="2" stroke-dasharray="2 5"/>
<path d="M551.318 271.462H661.054V361.23H551.318V271.462Z" stroke="#565656" stroke-width="2" stroke-dasharray="2 5"/>
<path d="M551.318 630.533H661.054V720.301H551.318V630.533Z" stroke="#565656" stroke-width="2" stroke-dasharray="2 5"/>
<path d="M331.845 2.1589H441.581V91.9267H331.845V2.1589Z" stroke="#565656" stroke-width="2" stroke-dasharray="2 5"/>
<path d="M331.845 361.23H441.581V450.998H331.845V361.23Z" stroke="#565656" stroke-width="2" stroke-dasharray="2 5"/>
<path d="M661.054 361.23H770.791V450.998H661.054V361.23Z" stroke="#565656" stroke-width="2" stroke-dasharray="2 5"/>
<path d="M331.845 181.694H441.581V271.462H331.845V181.694Z" stroke="#565656" stroke-width="2" stroke-dasharray="2 5"/>
<path d="M331.845 540.765H441.581V630.533H331.845V540.765Z" stroke="#565656" stroke-width="2" stroke-dasharray="2 5"/>
<path d="M661.054 181.694H770.791V271.462H661.054V181.694Z" stroke="#565656" stroke-width="2" stroke-dasharray="2 5"/>
<path d="M661.054 540.765H770.791V630.533H661.054V540.765Z" stroke="#565656" stroke-width="2" stroke-dasharray="2 5"/>
<path d="M331.845 91.9267H441.581V181.694H331.845V91.9267Z" stroke="#565656" stroke-width="2" stroke-dasharray="2 5"/>
<path d="M331.845 450.998H441.581V540.765H331.845V450.998Z" stroke="#565656" stroke-width="2" stroke-dasharray="2 5"/>
<path d="M990.264 450.998H1100V540.765H990.264V450.998Z" stroke="#565656" stroke-width="2" stroke-dasharray="2 5"/>
<path d="M661.054 450.998H770.791V540.765H661.054V450.998Z" stroke="#565656" stroke-width="2" stroke-dasharray="2 5"/>
<path d="M331.845 271.462H441.581V361.23H331.845V271.462Z" stroke="#565656" stroke-width="2" stroke-dasharray="2 5"/>
<path d="M661.054 271.462H770.791V361.23H661.054V271.462Z" stroke="#565656" stroke-width="2" stroke-dasharray="2 5"/>
</g>
</svg>
