<svg width="200" height="31" viewBox="0 0 200 31" fill="none" xmlns="http://www.w3.org/2000/svg">
<g id="Plan de travail 2" clip-path="url(#clip0_31_115)">
<path id="Vector" d="M0.164253 28.2697V0.923512H5.27537V24.8623H3.57166V2.62721H1.86796V26.566H15.5427V24.8623H6.98229V23.1586H17.2464V28.2697H0.164253Z" fill="#026E78"/>
<path id="Vector_2" d="M20.6924 28.2697V0.923512H37.7746V6.03462H25.8035V14.595H34.3639V12.8913H27.5072V11.1876H36.0676V16.2987H24.0966V4.3277H36.0676V2.62399H22.3929V26.5628H37.7713V24.8591H24.0966V18.0024H25.8003V23.1554H39.475V28.2665H20.6892L20.6924 28.2697Z" fill="#026E78"/>
<path id="Vector_3" d="M54.6473 0.923512H65.7842C68.818 0.923512 71.6038 3.74799 71.6038 6.78502C71.6038 10.1087 69.1948 12.8945 65.7842 12.8945H58.0547V4.33414H65.7842C67.198 4.33414 68.3188 5.49678 68.3188 6.86876C68.3188 8.24074 67.2399 9.52899 65.8679 9.52899V9.36151C66.7407 9.31964 67.5298 8.57246 67.5298 7.69968C67.5298 6.82689 66.7826 6.03784 65.8261 6.03784H59.7584V11.1908H65.9098C68.1546 11.1908 69.9839 9.02979 69.9839 6.86876C69.9839 4.70773 68.1127 2.63043 65.8293 2.63043H56.3542V26.5692H66.6602C69.446 26.5692 71.7713 24.2407 71.7713 21.4581C71.7713 18.6755 69.4009 16.3052 66.6602 16.3052H59.7617V23.1618H66.6602C68.1159 23.1618 69.153 22.1216 69.153 20.7109C69.153 19.3808 67.8647 18.3824 66.6183 18.3824V18.215C68.5314 18.215 70.1095 19.5451 70.1095 21.5386C70.1095 23.3261 68.4476 24.8623 66.6602 24.8623H58.058V14.5982H66.6602C70.3575 14.5982 73.4332 17.7995 73.4332 21.4549C73.4332 25.1103 70.4831 28.2697 66.6602 28.2697H54.6505V0.923512H54.6473Z" fill="#026E78"/>
<path id="Vector_4" d="M128.328 28.2697L112.95 2.62721H111.246V26.566H112.95V6.03462L126.332 28.2697H124.254L114.654 12.186V28.2697H109.543V0.923512H113.948L128.328 24.8623V2.62721H126.625V18.7109L124.921 15.8027V0.923512H130.032V28.2697H128.328Z" fill="#026E78"/>
<path id="Vector_5" d="M159.246 6.03462V4.33092H164.357V2.62721H145.53V4.33092H154.09V26.566H155.836V4.33092H157.539V28.2697H152.386V6.03462H143.868V0.923512H166.061V6.03462H159.246Z" fill="#026E78"/>
<path id="Vector_6" d="M184.886 28.2697L178.029 16.3019H174.622V28.2697H169.51V0.923512H180.647C183.929 0.923512 186.589 3.58373 186.589 6.82367C186.589 10.0636 184.055 12.8913 180.77 12.8913H172.915V4.33092H179.314C181.849 4.33092 183.179 4.91385 183.179 7.73832H182.973C182.973 6.20209 181.601 6.03462 180.396 6.03462H174.618V11.1876H180.853C183.224 11.1876 184.886 9.06844 184.886 6.82367C184.886 4.5789 183.015 2.62721 180.731 2.62721H171.214V26.566H172.918V14.5982H178.86L185.717 26.566H187.71L180.853 14.5982C184.634 14.5982 188.126 11.7705 188.126 7.82528H188.293C188.293 11.2327 187.089 14.7238 183.556 15.8478L190.622 28.2729H184.886V28.2697Z" fill="#026E78"/>
<path id="Vector_7" d="M194.776 28.2697V0.923512H199.887V2.62721H196.48V26.566H198.184V4.33092H199.887V28.2697H194.776Z" fill="#026E78"/>
<path id="Vector_8" d="M83.7456 12.4565C83.591 12.3824 82.9372 12.0958 82.5411 11.9025C82.3285 11.7995 81.7617 11.5418 82.2061 11.4806C83.3591 11.4452 84.5056 11.3776 85.6715 11.3905C86.2738 11.3969 88.1256 11.3454 88.029 10.8526C87.5684 8.44361 85.4493 6.1924 83.8615 4.31479L84.2512 4.10867L84.5475 3.96374C84.6506 3.90899 84.7601 3.87034 84.8664 3.81237L85.4171 3.58049L85.7585 3.44844L86.1224 3.31318L86.4348 3.21012L87.037 3.0201C87.1176 2.99434 87.2238 2.97179 87.3076 2.95247L87.8551 2.81398L88.1127 2.75923L88.4509 2.6916L89.1143 2.5821L89.5813 2.5209C89.694 2.5048 89.8776 2.4887 89.9903 2.48226L90.9114 2.42751H91.9968C92.1514 2.42751 92.3092 2.43717 92.4638 2.45971L93.0531 2.53701C94.9501 3.34216 95.7713 6.4887 96.2931 7.68033C96.6731 8.54667 96.9404 9.37759 97.2335 10.2504C97.4428 10.8752 97.8583 10.9782 98.4992 10.9686C99.372 10.9525 100.251 10.9621 101.349 10.9686C101.523 10.9686 101.594 11.1876 101.453 11.2842L94.5604 15.9605C94.4541 16.0346 94.3156 16.0507 94.1932 16.0088L83.591 12.3921" fill="#267E4C"/>
<path id="Vector_9" d="M90.4412 23.281C90.4766 23.4163 90.6989 23.9895 90.789 24.3374C90.8373 24.5209 90.9855 24.9976 90.6151 24.8172C89.781 24.2472 88.7439 23.0717 87.9388 22.6176C87.4847 22.3599 86.8953 22.3889 86.4895 22.7979C84.5056 24.7818 84.2254 25.3486 82.76 27.7416C82.0257 28.9396 82.2254 28.9654 82.1513 30.1312L80.9823 29.2263L79.8035 28.1087L78.7375 26.8784L78.1449 26.0346L77.8615 25.5709L77.6457 25.2198L77.3462 24.6788L76.9629 23.8704C76.3349 22.5081 76.5378 21.5548 77.314 20.4211C77.8776 19.5966 78.3929 18.7464 79.0241 17.9638C79.4782 17.4002 79.2882 17.1135 78.8341 16.7915C78.1095 16.2794 77.4138 15.7383 76.467 15.0298L86.5668 15.2069L90.3349 23.0234" fill="#E0D462"/>
<path id="Vector_10" d="M100.702 15.8253C100.821 15.7931 101.311 15.6321 101.62 15.5483C101.784 15.5065 102.213 15.3712 102.045 15.6772C101.523 16.3728 99.1916 18.7464 98.7762 19.5C98.7569 19.5322 99.3398 19.7834 99.942 19.9928C100.889 20.3213 101.82 20.7013 102.709 21.1554C103.916 21.7706 106.222 22.5983 106.187 22.8462C105.987 24.2214 104.564 26.0314 104.274 26.4598L103.459 27.4421C102.506 28.6627 102.28 28.5983 101.266 27.9187C100.087 27.1264 98.8599 26.3728 98.0065 25.6933C97.8229 25.5483 96.9179 24.9912 96.6667 24.8688C95.9034 24.4888 95.0435 25.0652 94.7086 25.4936C94.306 26.0153 93.8809 26.521 93.3559 27.1619C93.2754 27.2585 93.1144 27.2037 93.1176 27.0781L93.4042 19.2392L100.821 15.7899" fill="#93C6A1"/>
</g>
<defs>
<clipPath id="clip0_31_115">
<rect width="200" height="29.3076" fill="white" transform="translate(0 0.846218)"/>
</clipPath>
</defs>
</svg>
